<?xml version="1.0" encoding="UTF-8" standalone="no"?>
<svg
   xmlns:dc="http://purl.org/dc/elements/1.1/"
   xmlns:cc="http://creativecommons.org/ns#"
   xmlns:rdf="http://www.w3.org/1999/02/22-rdf-syntax-ns#"
   xmlns:svg="http://www.w3.org/2000/svg"
   xmlns="http://www.w3.org/2000/svg"
   xmlns:sodipodi="http://sodipodi.sourceforge.net/DTD/sodipodi-0.dtd"
   xmlns:inkscape="http://www.inkscape.org/namespaces/inkscape"
   version="1.1"
   id="Layer_1"
   x="0px"
   y="0px"
   viewBox="12.4018 -4 1819.5983 1881.0601"
   enable-background="new 12.4018 -4 1819.5983 1881.0601"
   xml:space="preserve"
   sodipodi:docname="Architecture-castle.svg"
   inkscape:version="0.92.3 (2405546, 2018-03-11)"><metadata
   id="metadata27"><rdf:RDF><cc:Work
       rdf:about=""><dc:format>image/svg+xml</dc:format><dc:type
         rdf:resource="http://purl.org/dc/dcmitype/StillImage" /><dc:title></dc:title></cc:Work></rdf:RDF></metadata><defs
   id="defs25" /><sodipodi:namedview
   pagecolor="#ffffff"
   bordercolor="#000000"
   borderopacity="1"
   objecttolerance="10"
   gridtolerance="10"
   guidetolerance="10"
   inkscape:pageopacity="0"
   inkscape:pageshadow="2"
   inkscape:window-width="1366"
   inkscape:window-height="705"
   id="namedview23"
   showgrid="false"
   inkscape:zoom="0.11009115"
   inkscape:cx="221.29975"
   inkscape:cy="365.23306"
   inkscape:window-x="-8"
   inkscape:window-y="-8"
   inkscape:window-maximized="1"
   inkscape:current-layer="Layer_1" />
<path
   d="M 850.17188 20.185547 C 849.44934 20.133184 848.71 20.195625 847.96875 20.390625 C 842.32875 21.310625 839.49734 28.829922 843.27734 33.169922 C 846.64734 37.999922 854.93898 36.849844 856.95898 31.339844 C 859.41773 26.501094 855.22965 20.55209 850.17188 20.185547 z M 849.22852 38.900391 C 846.82852 115.59039 844.62846 192.2807 842.31836 268.9707 C 842.04836 272.4507 842.70854 276.15972 841.14844 279.41992 C 797.33844 382.77992 753.7482 486.23008 709.9082 589.58008 C 715.1182 589.65008 720.33836 589.57938 725.56836 589.60938 C 725.48836 720.95938 725.54906 852.31016 725.53906 983.66016 C 715.82906 983.63016 706.11797 983.69109 696.41797 983.62109 C 696.48797 999.40119 696.41727 1015.1807 696.44727 1030.9707 C 665.06717 1031.0408 633.68859 1030.901 602.30859 1031.041 C 602.38849 1015.2309 602.26891 999.41937 602.37891 983.60938 C 567.09891 983.66938 531.80734 983.69961 496.52734 983.59961 C 496.59734 1084.0996 496.58906 1184.5996 496.53906 1285.0996 C 482.64906 1284.9997 468.75719 1285.0907 454.86719 1285.0508 C 454.89719 1300.8607 454.88891 1316.6706 454.87891 1332.4805 C 420.02891 1332.4105 385.16836 1332.4002 350.31836 1332.4902 C 350.31836 1316.6602 350.34883 1300.8394 350.29883 1285.0195 C 316.91883 1285.1294 283.53844 1284.9898 250.14844 1285.0898 C 250.15844 1251.3798 250.18867 1217.671 250.13867 1183.9609 C 263.95867 1183.9709 277.77766 1183.9203 291.59766 1183.9902 L 291.59766 1065.0098 C 279.80766 1065.0198 268.01852 1065.0702 256.22852 1064.9902 C 256.23852 1077.0202 256.21805 1089.0597 256.24805 1101.0996 C 250.36805 1101.1096 244.48742 1101.061 238.60742 1101.1309 C 238.59742 994.89086 238.61789 888.65026 238.58789 782.41016 C 243.71789 782.40026 248.83898 782.3607 253.95898 782.4707 C 224.73898 715.9707 195.25734 649.57047 166.27734 582.98047 C 165.14734 552.48047 164.31828 521.94945 163.48828 491.43945 C 190.80828 485.02945 218.31773 479.28977 246.17773 475.75977 C 246.18773 467.18977 246.17797 458.63055 246.16797 450.06055 C 245.62797 445.26055 251.06758 443.10992 252.26758 438.91992 C 251.96758 435.62992 247.99727 435.06102 245.44727 434.29102 C 233.32727 431.98102 220.91719 431.97914 208.61719 431.86914 C 192.92719 431.71914 177.24836 432.18984 161.56836 432.58984 C 161.40836 431.81984 161.08773 430.28953 160.92773 429.51953 C 161.22773 448.68953 159.93789 467.8593 159.58789 487.0293 C 158.70789 517.3793 157.77891 547.72031 156.87891 578.07031 C 156.83891 580.11031 156.76742 582.22938 155.85742 584.10938 C 127.81742 650.18937 99.967969 716.35945 71.917969 782.43945 C 75.237969 782.39945 78.558906 782.40086 81.878906 782.38086 C 81.828906 888.62086 81.818906 994.86937 81.878906 1101.1094 C 75.998906 1101.0894 70.108516 1101.0791 64.228516 1101.1191 L 64.228516 1065 C 51.628516 1065.05 39.027734 1065.05 26.427734 1065 C 26.527734 1104.67 26.458984 1144.3398 26.458984 1184.0098 C 40.258984 1183.8898 54.047891 1183.9892 67.837891 1183.9492 C 67.827891 1416.3192 67.888594 1648.6904 67.808594 1881.0605 C 195.40859 1880.7304 323.00742 1880.6196 450.60742 1880.6895 C 833.93742 1880.6895 1217.2579 1880.7096 1600.5879 1880.6797 C 1600.508 1648.4396 1600.6173 1416.1992 1600.5273 1183.9492 C 1614.3372 1183.9993 1628.1491 1183.8595 1641.959 1184.0195 C 1641.939 1144.3395 1641.949 1104.6606 1641.959 1064.9805 C 1630.1491 1065.1005 1618.3372 1064.991 1606.5273 1065.041 C 1606.5972 1077.061 1606.5185 1089.0894 1606.5684 1101.1094 C 1600.7384 1101.0894 1594.9176 1101.0896 1589.0977 1101.0996 C 1589.1377 994.85961 1589.1477 888.62086 1589.0977 782.38086 C 1594.2577 782.40086 1599.4176 782.43039 1604.5977 782.40039 C 1591.4878 753.28039 1578.8381 723.9692 1565.9082 694.7793 C 1549.5481 657.4893 1532.9876 620.26969 1516.7676 582.92969 C 1515.8076 552.26969 1514.9388 521.59969 1513.9688 490.92969 C 1541.4088 484.42969 1569.0772 478.87055 1597.0273 475.06055 C 1596.9873 466.08055 1596.9291 457.08938 1597.0391 448.10938 C 1597.7592 443.99937 1602.1083 441.82969 1603.4883 437.92969 C 1600.3082 433.04969 1593.7281 433.49 1588.668 432.5 C 1563.2681 430.28 1537.7273 431.51055 1512.2773 432.06055 C 1512.1772 431.26055 1511.9574 429.67086 1511.8574 428.88086 C 1510.3374 479.83086 1508.9083 530.80023 1507.2383 581.74023 C 1496.2583 608.54023 1484.7178 635.13937 1473.5078 661.85938 C 1456.4778 702.04938 1439.5587 742.2907 1422.4688 782.4707 C 1425.8087 782.3907 1429.1478 782.37992 1432.5078 782.41992 C 1432.4378 888.65992 1432.4683 994.89086 1432.4883 1101.1309 C 1426.5083 1101.0708 1420.5189 1101.0809 1414.5488 1101.1309 C 1414.5688 1089.1008 1414.5688 1077.0707 1414.5488 1065.0508 C 1401.9488 1065.0108 1389.3578 1065.0393 1376.7578 1065.0293 C 1376.7178 1104.6793 1376.758 1144.3209 1376.748 1183.9609 C 1390.5879 1183.9609 1404.4275 1183.9492 1418.2676 1183.9492 C 1418.2576 1217.6693 1418.2776 1251.3796 1418.2676 1285.0996 C 1385.8175 1284.9796 1353.3778 1285.1498 1320.9277 1285.0098 C 1320.8478 1300.8398 1320.9286 1316.6698 1320.8887 1332.5098 C 1286.0387 1332.3698 1251.1879 1332.4407 1216.3379 1332.4707 C 1216.3279 1316.6708 1216.2973 1300.8801 1216.3574 1285.0801 C 1202.5674 1285.0602 1188.7683 1284.9994 1174.9883 1285.1094 C 1174.9683 1184.5993 1174.948 1084.0897 1174.998 983.58984 C 1144.9679 983.70984 1114.9477 983.66937 1084.9277 983.60938 C 1084.9977 999.41937 1084.9188 1015.2309 1084.9688 1031.041 C 1053.5788 1030.9009 1022.1888 1031.0305 990.79883 1030.9805 C 990.83883 1015.1905 990.74789 999.39937 990.83789 983.60938 C 984.09789 983.66937 977.36867 983.66086 970.63867 983.63086 C 970.64867 852.30086 970.66914 720.96086 970.61914 589.63086 C 978.66914 589.60086 986.72906 589.58063 994.78906 589.64062 C 948.84906 485.59062 903.13781 381.42961 857.25781 277.34961 C 856.05781 273.72961 856.72797 269.78906 856.41797 266.03906 C 855.45797 235.35906 854.62891 204.68 853.62891 174 C 853.31881 156.73 852.29891 139.45922 852.37891 122.19922 C 852.56881 125.54922 852.94867 132.24961 853.13867 135.59961 C 895.95867 125.29961 939.19867 116.53039 982.88867 110.90039 C 982.91867 96.630391 982.7875 82.359609 982.9375 68.099609 C 984.2275 62.059609 991.16898 59.089531 992.45898 53.019531 C 992.51898 49.829531 989.04781 48.279844 986.50781 47.339844 C 977.86791 44.459844 968.6775 44.020938 959.6875 43.210938 C 923.0975 41.100937 886.43766 42.530859 849.84766 43.380859 C 849.68766 42.260859 849.37852 40.020391 849.22852 38.900391 z M 992.44727 57.300781 C 990.48727 60.700781 987.22797 63.190078 985.66797 66.830078 C 985.96797 67.300078 986.54789 68.260469 986.83789 68.730469 C 988.58789 69.450469 990.41836 69.969453 992.31836 70.189453 C 992.30836 65.889453 992.21727 61.590781 992.44727 57.300781 z M 1165.4902 62.921875 C 1163.8595 62.924041 1162.2289 62.937812 1160.5977 62.960938 C 1146.5077 62.780937 1132.4887 64.38 1118.4688 65.5 C 1086.5687 68.16 1054.6287 70.649219 1022.6387 71.949219 C 1010.5287 71.979219 998.24883 73.020078 986.29883 70.580078 C 986.44883 90.360078 986.31914 110.13992 986.36914 129.91992 C 1003.5191 131.26992 1020.648 128.52914 1037.5879 126.11914 C 1070.3179 121.04914 1102.6883 113.82039 1134.6484 105.15039 C 1157.0683 98.880391 1180.4381 96.769375 1203.6582 96.859375 C 1230.7281 96.579375 1257.7582 98.990391 1284.8281 98.400391 C 1275.2981 95.640391 1265.4876 94.010859 1255.7676 92.130859 C 1233.0276 88.050859 1210.1977 84.459297 1187.4277 80.529297 C 1211.1977 75.819297 1235.5877 76.739219 1259.6777 75.449219 C 1270.2177 74.829219 1280.8773 74.799375 1291.2773 72.859375 C 1273.7673 70.959375 1256.2373 69.129141 1238.6973 67.369141 C 1214.3504 65.137891 1189.9508 62.889392 1165.4902 62.921875 z M 1512.1719 417.17773 C 1511.4684 417.15692 1510.7527 417.29937 1510.0684 417.64062 C 1506.8384 418.94062 1505.8884 423.71906 1508.5684 426.03906 C 1511.1485 428.87906 1516.3679 427.28055 1517.0879 423.56055 C 1518.0386 420.40805 1515.2202 417.26793 1512.1719 417.17773 z M 161.6543 417.77344 C 161.035 417.74892 160.40633 417.84383 159.79883 418.08008 C 156.08883 419.36008 155.20781 424.85984 158.50781 427.08984 C 161.60781 429.71984 166.77898 426.96906 166.70898 423.03906 C 166.84711 420.22781 164.33793 417.8797 161.6543 417.77344 z M 1603.1777 441.13086 C 1601.5477 443.12086 1599.939 445.13047 1598.459 447.23047 C 1599.839 448.09047 1601.2885 448.82023 1602.8086 449.49023 C 1602.9987 446.70023 1603.0278 443.91086 1603.1777 441.13086 z M 252.22852 441.93945 C 250.49852 443.83945 248.8582 445.82938 247.6582 448.10938 C 249.0582 448.83938 250.53766 449.36016 252.09766 449.66016 C 252.12766 447.09016 252.16852 444.49945 252.22852 441.93945 z M 1712.5625 444.4707 C 1700.8657 444.48615 1689.2059 445.68117 1677.5684 446.66992 C 1661.9284 447.92992 1646.2889 449.16969 1630.6191 449.92969 C 1620.1391 450.20969 1609.5783 451.11078 1599.1484 449.55078 C 1599.2882 462.14078 1599.1988 474.73984 1599.2188 487.33984 C 1607.3488 488.14984 1615.4979 486.98937 1623.5879 486.10938 C 1646.5779 482.96937 1669.3085 478.09914 1691.7285 472.11914 C 1701.8084 469.27914 1712.1591 467.36 1722.6191 466.75 C 1745.0091 464.87 1767.4477 467.85961 1789.8477 467.09961 C 1769.3677 462.20961 1748.4588 459.40086 1727.7188 455.88086 C 1749.1888 451.60086 1771.3383 453.96086 1792.9883 451.13086 C 1792.2283 450.82086 1791.4688 450.58062 1790.7188 450.39062 C 1766.3687 448.15063 1742.0581 444.99906 1717.5781 444.53906 C 1715.9056 444.48906 1714.2335 444.4685 1712.5625 444.4707 z M 359.22852 445.10938 C 357.34537 445.12153 355.4625 445.15047 353.57812 445.19922 C 323.92812 447.13922 294.34914 450.47953 264.61914 451.01953 C 259.16914 450.92953 253.60906 451.32922 248.28906 449.94922 C 248.38906 462.62922 248.29742 475.32 248.35742 488 C 258.15742 488.75 267.92891 487.28906 277.62891 486.03906 C 300.92891 482.54906 323.94797 477.36969 346.66797 471.17969 C 376.97797 463.41969 408.40875 468.46945 439.21875 467.68945 C 418.64875 462.73945 397.59914 460.26094 376.86914 456.21094 C 398.93914 452.50094 421.48844 454.39953 443.64844 451.51953 C 415.58906 448.69766 387.47576 444.92704 359.22852 445.10938 z "
   transform="translate(12.4018,-4)"
   id="path2"
   style="fill:#000000;fill-opacity:1" />









</svg>