<?xml version="1.0" encoding="UTF-8" standalone="no"?>
<svg
   xmlns:dc="http://purl.org/dc/elements/1.1/"
   xmlns:cc="http://creativecommons.org/ns#"
   xmlns:rdf="http://www.w3.org/1999/02/22-rdf-syntax-ns#"
   xmlns:svg="http://www.w3.org/2000/svg"
   xmlns="http://www.w3.org/2000/svg"
   xmlns:sodipodi="http://sodipodi.sourceforge.net/DTD/sodipodi-0.dtd"
   xmlns:inkscape="http://www.inkscape.org/namespaces/inkscape"
   id="svg198"
   width="16"
   version="1.1"
   height="16"
   sodipodi:docname="plane_epg_logo_alt.svg"
   inkscape:version="0.92.3 (2405546, 2018-03-11)">
  <sodipodi:namedview
     pagecolor="#ffffff"
     bordercolor="#666666"
     borderopacity="1"
     objecttolerance="10"
     gridtolerance="10"
     guidetolerance="10"
     inkscape:pageopacity="0"
     inkscape:pageshadow="2"
     inkscape:window-width="1366"
     inkscape:window-height="705"
     id="namedview13"
     showgrid="false"
     inkscape:zoom="12.598514"
     inkscape:cx="1.5416196"
     inkscape:cy="5.5296504"
     inkscape:window-x="-8"
     inkscape:window-y="-8"
     inkscape:window-maximized="1"
     inkscape:current-layer="svg198" />
  <metadata
     id="metadata204">
    <rdf:RDF>
      <cc:Work
         rdf:about="">
        <dc:format>image/svg+xml</dc:format>
        <dc:type
           rdf:resource="http://purl.org/dc/dcmitype/StillImage" />
        <dc:title></dc:title>
      </cc:Work>
    </rdf:RDF>
  </metadata>
  <defs
     id="defs202" />
  <g
     transform="translate(142.05449,-592.89544)"
     id="RenderLayer_LineSet"
     style="fill:#000000;fill-opacity:1">
    <g
       id="strokes"
       style="fill:#000000;fill-opacity:1">
      <g
         transform="matrix(0.04268674,0,0,0.03689873,-154.54409,590.87862)"
         style="fill:#000000;fill-opacity:1"
         id="g823">
        <path
           style="fill:#000000;fill-opacity:1;stroke:none;stroke-width:3;stroke-linecap:butt;stroke-linejoin:round;stroke-opacity:1"
           d="m 480,56.425781 c -33.49467,24.747037 -64.0209,56.800779 -105.43402,67.792319 -17.53856,5.01019 -36.22445,3.85962 -53.75153,-0.6224 6.3055,75.38054 0.8764,152.22447 19.72979,226.16287 8.84608,14.97265 21.29024,28.0396 33.07381,40.95732 33.09928,34.49771 71.88935,62.78657 106.38195,95.79388 46.81816,-44.51124 101.64147,-81.56469 139.08984,-135.13868 17.74708,-68.92918 14.5548,-140.57002 18.8391,-211.01637 -0.98546,-4.64666 3.88659,-15.94786 -0.85674,-16.32632 -27.37114,7.61936 -57.04892,2.26647 -81.40032,-11.87215 C 528.06333,97.076485 505.09869,75.10678 480,56.425781 Z m 0,23.691407 c 31.26688,23.211412 60.18997,53.732142 99.92731,61.380262 13.39732,2.33335 27.05319,1.13989 40.15472,-2.27089 -5.55594,66.81667 -0.76014,134.94144 -17.68359,200.44141 C 569.44743,386.81301 521.1979,419.41988 480,458.58984 438.80087,419.42188 390.55365,386.8115 357.60156,339.66797 340.68215,274.16845 345.46985,206.04211 339.91797,139.22656 c 24.56636,7.19478 51.38063,2.79484 73.33907,-9.98676 C 437.62981,115.97081 457.85909,96.591624 480,80.117188 Z"
           id="path4" />
        <path
           style="fill:#000000;fill-opacity:1;stroke:none;stroke-width:1;stroke-linecap:butt;stroke-linejoin:round;stroke-miterlimit:4;stroke-dasharray:none;stroke-opacity:1"
           d="m 458.99376,132.70206 c -1.31714,4.29002 -2.63532,8.5795 -3.95169,12.86975 1.53475,6.75303 -4.91047,3.98142 -9.06872,4.58775 -6.25936,2.6389 -5.93501,-2.34936 -7.45474,-6.84922 -2.27497,-2.90746 -1.62282,-11.49444 -6.6788,-9.01068 -2.89664,1.58931 -11.03135,1.00704 -9.5223,5.41477 1.35029,5.1032 1.82384,10.50336 4.44718,15.17511 -2.09334,1.12573 -4.18618,2.25173 -6.27952,3.37746 -3.91446,4.09804 -6.8833,4.60451 -9.92973,-0.3811 -3.43615,-1.6214 -7.10258,-8.07495 -10.38422,-6.45874 -2.42516,2.83594 -7.35291,6.18267 -7.64061,9.39982 4.0988,4.07004 7.45696,8.98464 12.46412,12.01982 -2.67305,3.97721 -4.87416,8.12507 -6.67694,12.56707 -5.55094,-2.54362 -11.77036,-2.53793 -17.67897,-3.71779 -1.34389,4.31951 -2.35697,8.71553 -3.03955,13.18746 4.29003,1.31715 8.57952,2.63531 12.86977,3.95169 6.75362,-1.53476 3.97915,4.91254 4.58586,9.07075 0.18867,1.86642 0.37792,3.73232 0.5666,5.59876 -6.07867,0.57397 -11.46138,3.68739 -17.16827,5.61962 0.99551,4.41284 2.31554,8.72662 3.96001,12.94087 5.80966,-1.59271 12.01467,-2.03984 17.37359,-4.95066 2.09659,4.28402 4.61315,8.30418 7.54471,12.06608 -1.20153,0.99092 -2.40308,1.98158 -3.60461,2.9725 -2.8181,3.49305 -5.63637,6.98702 -8.45465,10.47993 3.0692,3.3234 6.36991,6.39803 9.90125,9.2255 4.23538,-4.28506 9.37967,-7.7724 12.56854,-12.97593 l 5.68717,3.55198 c 4.26156,2.19237 8.99906,2.22412 5.24595,7.50355 -0.69399,4.43385 -1.38735,8.86846 -2.08181,13.30223 4.31961,1.34374 8.7156,2.35615 13.18745,3.03958 1.52541,-5.82799 4.23904,-11.42648 4.39752,-17.52312 4.75847,0.32717 9.49986,0.15773 14.22361,-0.50108 0.5739,6.07904 3.68798,11.4628 5.61969,17.17024 4.42471,-0.99991 8.71384,-2.31164 12.94088,-3.96002 -1.59258,-5.81078 -2.03925,-12.00978 -4.95068,-17.37359 4.30321,-2.10828 8.28355,-4.60161 12.06602,-7.54666 3.53613,4.97733 8.92315,8.08392 13.45048,12.05933 1.61511,-1.57817 3.23099,-3.15593 4.8461,-4.7341 l 4.38142,-5.16526 c -4.28492,-4.23587 -7.77216,-9.38157 -12.97601,-12.57049 l 3.75168,-6.06553 c 1.3405,-5.5065 3.65883,-7.42826 8.78955,-4.63459 3.93873,0.61647 7.87791,1.23187 11.81655,1.8488 1.34374,-4.31961 2.35613,-8.7156 3.03956,-13.18745 -4.29036,-1.31712 -8.58117,-2.63511 -12.87171,-3.95163 -6.75363,1.53477 -3.97908,-4.91057 -4.58579,-9.06878 -0.57233,-4.58895 -1.66825,-6.38981 4.04181,-6.37281 4.18705,-1.61573 8.3749,-3.2313 12.56173,-4.8476 l -1.67738,-6.56221 c -0.76099,-2.12585 -1.52163,-4.25281 -2.28262,-6.37867 -4.37403,1.00426 -8.74886,2.00797 -13.12278,3.0127 -5.08077,4.70693 -5.90319,-2.2616 -8.50764,-5.55939 -5.41545,-4.10068 -0.93255,-6.31457 2.20429,-9.8806 1.38007,-3.42428 9.14219,-7.15188 4.46281,-10.2885 -2.82497,-1.71393 -6.38648,-9.05086 -9.44895,-5.53991 -3.74302,3.72226 -8.18505,6.8302 -10.91851,11.43836 -3.95776,-2.66166 -8.14729,-4.88486 -12.56708,-6.67693 2.54201,-5.5514 2.5362,-11.77035 3.71584,-17.67889 -4.33172,-1.34684 -8.70247,-2.35416 -13.18746,-3.03955 z m -10.72221,39.4234 c 9.90879,-0.29381 19.73319,4.03921 26.10956,11.75018 2.65378,3.33436 4.66623,7.0826 5.98749,11.134 0.32392,1.37477 0.64798,2.74786 0.97191,4.12263 0.62997,4.21421 0.5003,8.46764 -0.38152,12.6365 -0.40696,1.35284 -0.81418,2.70634 -1.22113,4.05917 -2.55015,6.63165 -7.18247,12.3059 -13.17265,16.13198 -1.24422,0.66887 -2.49014,1.33882 -3.73436,2.00771 -7.78346,3.48952 -16.76894,3.80633 -24.77955,0.87294 -5.29874,-2.05723 -9.98073,-5.39579 -13.65585,-9.73425 -0.82587,-1.1463 -1.65317,-2.29246 -2.39728,-3.25356 -0.58709,-1.05904 -1.41954,-2.67296 -2.08842,-3.91718 -2.29081,-5.20175 -3.24035,-10.87522 -2.77159,-16.54158 1.20291,-12.83453 10.42799,-24.13769 22.76877,-27.88334 1.37477,-0.32428 2.74787,-0.64765 4.12263,-0.97192 1.40926,-0.23442 2.82645,-0.3713 4.24199,-0.41328 z"
           id="topGear" />
        <path
           style="fill:#000000;fill-opacity:1;stroke:none;stroke-width:3;stroke-linecap:butt;stroke-linejoin:round;stroke-opacity:1"
           d="m 468.704,207.015 c 0.5975,-4.8763 -0.64397,-9.95769 -3.55539,-13.92853 -4.65419,-6.91589 -14.12909,-9.61157 -21.91346,-7.00306 -5.01247,1.54425 -9.15877,5.36835 -11.34165,10.10059 -4.25994,8.29816 -1.02926,19.32955 6.67317,24.43259 6.61746,4.52321 16.05093,4.33997 22.42606,-0.54571 4.23488,-3.04995 7.01851,-7.90105 7.71127,-13.05588 z"
           id="path144" />
        <path
           id="bottomGear"
           d="m 524.47655,398.45418 c -1.73769,-4.13758 -3.47635,-8.2745 -5.21332,-12.41241 0.85482,-6.87226 -5.28245,-3.47278 -9.48042,-3.66206 -6.49098,-2.00264 -5.67164,2.92855 -6.73581,7.55737 -1.97422,3.11949 -0.47042,11.59888 -5.74855,9.63081 -3.04047,-1.29303 -11.07682,0.0962 -10.01408,-4.43987 0.83554,-5.21227 0.76908,-10.63275 2.91432,-15.54245 -2.195,-0.91177 -4.38955,-1.8238 -6.58457,-2.73553 -4.303,-3.68798 -7.30751,-3.89636 -9.84246,1.36777 -3.25766,1.95542 -6.26338,8.74194 -9.68962,7.46046 -2.69546,-2.58041 -7.9319,-5.41991 -8.53845,-8.59244 3.67323,-4.45789 6.52543,-9.6824 11.20554,-13.20098 -3.05571,-3.69134 -5.65884,-7.59946 -7.89489,-11.83991 -5.27013,3.08361 -11.45923,3.69713 -17.221,5.45935 -1.76727,-4.16424 -3.21296,-8.43757 -4.33734,-12.81933 4.13758,-1.7377 8.27451,-3.47636 12.41241,-5.21334 6.87286,0.85479 3.47031,-5.28425 3.66006,-9.4822 0.002,-1.87593 0.005,-3.7514 0.006,-5.62735 -6.10561,0.0341 -11.77152,-2.52802 -17.64243,-3.88251 0.55123,-4.49002 1.43524,-8.91379 2.65199,-13.27082 5.93935,1.00643 12.15805,0.8336 17.78012,3.19643 1.65964,-4.47147 3.76352,-8.72219 6.30599,-12.75726 -1.29419,-0.86637 -2.58841,-1.73249 -3.88262,-2.59887 -3.15187,-3.19514 -6.30398,-6.39119 -9.45599,-9.58617 2.72308,-3.61244 5.7013,-7.00039 8.93361,-10.16538 4.64094,3.84211 10.10685,6.79998 13.79792,11.6602 l 5.3053,-4.10054 c 4.02213,-2.60573 8.73292,-3.10898 4.47287,-7.98852 -1.13196,-4.34274 -2.26338,-8.68629 -3.39579,-13.0289 4.16436,-1.76711 8.43773,-3.21214 12.81934,-4.33736 2.09804,5.64715 5.35555,10.94767 6.1202,16.99827 4.70224,-0.79929 9.43696,-1.10271 14.20282,-0.91746 -0.0342,-6.10599 2.52848,-11.77302 3.88239,-17.64441 4.50228,0.55444 8.90067,1.43264 13.27082,2.65201 -1.00616,5.94045 -0.83344,12.15312 -3.19643,17.78013 4.49171,1.66941 8.70049,3.7541 12.75737,6.30793 3.02306,-5.30466 8.07402,-8.93211 12.18309,-13.33848 1.76422,1.40953 3.52913,2.81859 5.29334,4.2281 l 4.87386,4.70342 c -3.8419,4.64142 -6.79953,10.10872 -11.66006,13.79988 l 4.3369,5.66189 c 1.88204,5.3457 4.38017,7.02708 9.20728,3.73652 3.85778,-1.00553 7.71612,-2.01005 11.5738,-3.01604 1.7671,4.16439 3.21211,8.43775 4.33733,12.81934 -4.13791,1.7377 -8.2762,3.47633 -12.41435,5.21345 -6.87287,-0.85477 -3.47044,5.28232 -3.66018,9.48026 -0.11259,4.62314 -1.02382,6.52415 4.65619,5.93877 4.3271,1.19084 8.65498,2.38148 12.98192,3.57291 l -1.01573,6.69661 c -0.54556,2.19105 -1.09069,4.38317 -1.63625,6.57422 -4.45228,-0.5638 -8.9053,-1.12698 -13.35752,-1.69127 -5.52413,-4.17771 -5.6487,2.83806 -7.91189,6.37876 -4.98031,4.61944 -0.29927,6.37603 3.17702,9.61205 1.71411,3.26988 9.80876,6.20621 5.46491,9.79309 -2.64033,1.98666 -5.45369,9.64171 -8.85048,6.45309 -4.09501,-3.33112 -8.82438,-5.9814 -12.00304,-10.29453 -3.67311,3.04245 -7.62049,5.6717 -11.83991,7.89488 3.08205,5.27075 3.6954,11.45938 5.45742,17.22113 -4.17613,1.7714 -8.42487,3.20886 -12.81934,4.33734 z m -14.59378,-38.16009 c 9.88882,-0.69411 19.23304,-5.98368 24.81005,-14.29116 2.30863,-3.58199 3.93796,-7.51196 4.84928,-11.67476 0.18552,-1.4002 0.37121,-2.79872 0.55667,-4.19894 0.20728,-4.25598 -0.34519,-8.47537 -1.63766,-12.53572 -0.53962,-1.3056 -1.07956,-2.61185 -1.61918,-3.91745 -3.1977,-6.3448 -8.37192,-11.52968 -14.71322,-14.74041 -1.30465,-0.54169 -2.61106,-1.0843 -3.91571,-1.62597 -8.09219,-2.69729 -17.06458,-2.11795 -24.74336,1.59836 -5.06758,2.57453 -9.39397,6.36262 -12.61891,11.04542 -0.70764,1.22282 -1.41673,2.44565 -2.06145,3.47606 -0.47875,1.11222 -1.1464,2.80098 -1.68807,4.10563 -1.76154,5.40397 -2.14154,11.14377 -1.11101,16.73532 2.4747,12.65101 12.77924,22.97961 25.43162,25.47807 1.40021,0.18582 2.79869,0.37085 4.19892,0.55665 1.42559,0.0929 2.84936,0.088 4.26203,-0.0111 z"
           style="fill:#000000;fill-opacity:1;stroke:none;stroke-width:1;stroke-linecap:butt;stroke-linejoin:round;stroke-miterlimit:4;stroke-dasharray:none;stroke-opacity:1" />
        <path
           style="fill:#000000;fill-opacity:1;stroke:none;stroke-width:3;stroke-linecap:butt;stroke-linejoin:round;stroke-opacity:1"
           d="m 507.98392,308.02389 c -2.05567,0.006 -4.10664,0.32639 -6.05273,0.97851 -5.01247,1.54425 -9.15892,5.36933 -11.3418,10.10157 -4.25994,8.29816 -1.03055,19.3286 6.67188,24.43164 6.61746,4.52321 16.05065,4.34076 22.42578,-0.54492 4.23488,-3.04995 7.02013,-7.90181 7.71289,-13.05664 0.5975,-4.87631 -0.64522,-9.9569 -3.55664,-13.92774 -3.49064,-5.18692 -9.69236,-8.00054 -15.85938,-7.98242 z m 0.0469,6.68555 c 3.90965,-0.0117 7.8398,1.80087 10.05273,5.14257 1.84573,2.55823 2.63466,5.83108 2.25586,8.97266 -0.43918,3.32103 -2.20392,6.44717 -4.88867,8.41211 -4.04159,3.14763 -10.02353,3.26566 -14.21875,0.35156 -4.88305,-3.28766 -6.93111,-10.3941 -4.23047,-15.74023 1.38387,-3.04877 4.01369,-5.51293 7.19141,-6.50782 1.23375,-0.42013 2.53467,-0.62696 3.83789,-0.63085 z"
           id="path4530" />
      </g>
    </g>
  </g>
</svg>
