<?xml version="1.0" standalone="no"?>
<!DOCTYPE svg PUBLIC "-//W3C//DTD SVG 20010904//EN"
 "http://www.w3.org/TR/2001/REC-SVG-20010904/DTD/svg10.dtd">
<svg version="1.0" xmlns="http://www.w3.org/2000/svg"
 width="128pt" height="64pt" viewBox="0 0 1280.000000 640.000000"
 preserveAspectRatio="xMidYMid meet">
<g transform="translate(0.000000,640.000000) scale(0.100000,-0.100000)"
fill="#000000" stroke="none">
<path d="M11672 5898 c-11 -29 -147 -379 -302 -778 l-282 -725 41 -599 c23
-329 40 -600 39 -601 -4 -4 -880 -27 -883 -23 -2 2 12 185 30 408 109 1312
107 1280 93 1303 -8 12 -104 163 -213 335 l-198 312 -363 0 -364 0 -5 -22 c-3
-13 -52 -239 -110 -503 -58 -264 -131 -595 -162 -736 l-56 -255 61 -485 c34
-266 62 -487 62 -491 0 -5 -137 -8 -305 -8 -227 0 -305 3 -305 12 0 6 -58 431
-130 943 -71 512 -130 941 -130 953 0 14 -6 22 -17 22 -10 0 -234 -43 -499
-96 l-481 -96 -81 -267 c-45 -146 -142 -460 -216 -697 l-134 -431 28 -294 c16
-162 30 -313 31 -337 l3 -43 -354 -165 c-195 -91 -383 -179 -418 -195 l-63
-28 6 52 c3 29 19 224 35 435 17 211 64 755 105 1208 l75 825 -28 24 c-15 13
-211 183 -437 378 -384 331 -411 353 -421 333 -6 -12 -143 -338 -305 -725
l-293 -704 32 -451 c18 -248 34 -464 35 -481 1 -22 -2 -29 -13 -28 -60 9 -825
145 -830 148 -3 2 0 70 7 152 7 81 33 379 58 661 l44 514 -212 319 -212 319
-364 -3 -364 -2 -163 -705 c-90 -388 -164 -714 -166 -725 -1 -11 2 -45 6 -75
l7 -55 -273 9 c-150 4 -276 11 -280 15 -6 5 -38 256 -178 1359 -21 167 -39
305 -41 307 -5 5 -976 -208 -983 -216 -4 -3 -49 -159 -102 -345 -247 -878
-296 -1049 -297 -1051 -1 -1 -99 2 -217 7 -118 5 -216 7 -218 6 -4 -4 25 -487
30 -491 2 -3 93 -15 202 -29 108 -13 198 -25 200 -27 5 -8 84 -984 79 -989 -2
-2 -110 -12 -240 -22 -129 -9 -238 -20 -241 -22 -4 -4 -31 -249 -32 -293 0
-10 59 -11 275 -6 269 6 275 6 275 -14 0 -10 14 -179 30 -374 17 -195 44 -511
60 -703 17 -193 30 -360 30 -373 l0 -23 529 0 529 0 11 68 c6 37 47 315 91
617 107 732 121 829 126 837 4 7 291 13 653 13 l215 0 103 -765 c56 -421 102
-766 103 -767 0 -2 149 -3 330 -3 256 0 332 3 335 13 2 6 20 201 39 432 88
1028 137 1579 141 1583 5 5 967 -17 972 -22 1 -1 34 -434 73 -962 39 -527 73
-978 76 -1001 l5 -43 425 0 424 0 0 28 c0 61 79 1024 84 1030 6 6 56 16 615
123 200 38 365 68 367 66 2 -2 30 -282 62 -623 l57 -619 527 -3 528 -2 5 22
c2 13 20 120 39 238 40 247 116 721 186 1155 27 165 54 337 61 383 11 70 15
82 32 82 21 0 751 -100 752 -103 1 -1 50 -384 109 -852 59 -467 110 -867 113
-888 l6 -37 333 0 c311 0 334 1 334 18 0 35 79 964 82 966 2 2 512 -15 1060
-36 47 -2 88 -5 91 -8 2 -3 16 -187 31 -410 15 -223 30 -433 33 -468 l6 -62
422 0 422 0 6 63 c3 34 18 239 34 455 l28 393 115 -5 c390 -19 410 -19 410 1
-2 61 -28 475 -31 478 -2 2 -105 15 -229 30 -124 15 -225 27 -226 28 0 1 8
112 18 247 10 135 26 356 36 492 10 136 21 250 23 253 3 2 87 11 188 19 100 8
185 17 188 20 5 4 31 244 33 293 0 8 -50 10 -196 6 l-196 -6 6 59 c3 32 24
275 46 539 23 264 54 635 70 825 16 190 32 381 35 425 l7 80 -412 380 c-227
209 -425 390 -440 403 l-28 22 -20 -52z m-9260 -2862 c148 -18 270 -35 272
-37 5 -6 78 -550 74 -554 -3 -2 -708 -56 -734 -55 -7 0 -2 60 16 183 15 100
38 253 50 340 19 128 26 157 39 157 9 -1 136 -16 283 -34z m8788 -243 c0 -5
11 -178 26 -386 14 -208 24 -380 22 -383 -5 -4 -1039 116 -1047 122 -6 5 42
569 49 577 4 5 202 23 441 41 488 38 509 39 509 29z"/>
</g>
</svg>
