<?xml version="1.0" encoding="UTF-8" standalone="no"?>
<svg
   xmlns:dc="http://purl.org/dc/elements/1.1/"
   xmlns:cc="http://creativecommons.org/ns#"
   xmlns:rdf="http://www.w3.org/1999/02/22-rdf-syntax-ns#"
   xmlns:svg="http://www.w3.org/2000/svg"
   xmlns="http://www.w3.org/2000/svg"
   id="svg8"
   version="1.1"
   viewBox="0 0 4.2333333 4.2333333"
   height="16"
   width="16">
  <defs
     id="defs2" />
  <metadata
     id="metadata5">
    <rdf:RDF>
      <cc:Work
         rdf:about="">
        <dc:format>image/svg+xml</dc:format>
        <dc:type
           rdf:resource="http://purl.org/dc/dcmitype/StillImage" />
        <dc:title></dc:title>
      </cc:Work>
    </rdf:RDF>
  </metadata>
  <g
     transform="translate(0,-292.76667)"
     id="layer1">
    <path
       id="path821"
       d="m 2.1166924,292.88334 a 1.9999931,1.9999924 0 0 0 -2.00002574,1.99997 1.9999931,1.9999924 0 0 0 2.00002574,2.00003 1.9999931,1.9999924 0 0 0 1.9999743,-2.00003 1.9999931,1.9999924 0 0 0 -1.9999743,-1.99997 z m -0.1490862,0.78615 H 2.120155 c 0.040453,0 0.074528,0.0145 0.1022666,0.0433 0.028897,0.0277 0.043359,0.0617 0.043359,0.10227 v 0.1248 c 0,0.0404 -0.014463,0.0757 -0.043359,0.10573 -0.027739,0.0288 -0.061812,0.0433 -0.1022666,0.0433 H 1.9640928 c -0.041612,0 -0.076836,-0.0149 -0.1057293,-0.0451 -0.027739,-0.03 -0.041052,-0.0636 -0.039893,-0.10054 l 0.00344,-0.12826 c 0,-0.0404 0.013911,-0.0745 0.041648,-0.10227 0.028897,-0.0289 0.063568,-0.0433 0.1040253,-0.0433 z m -0.2912987,0.7555 H 2.120155 c 0.040453,0 0.074528,0.0151 0.1022666,0.0451 0.028897,0.0288 0.043359,0.0636 0.043359,0.104 v 1.23201 h 0.2912473 c 0.040453,0 0.075135,0.0144 0.104024,0.0432 0.030047,0.0277 0.04506,0.0619 0.04506,0.10227 0,0.0404 -0.014408,0.0751 -0.043305,0.104 -0.028897,0.0277 -0.063025,0.0415 -0.10232,0.0415 H 1.6728467 c -0.040455,0 -0.075135,-0.0139 -0.1040253,-0.0415 -0.027739,-0.0288 -0.041595,-0.0636 -0.041595,-0.104 0,-0.0392 0.013856,-0.0735 0.041595,-0.10227 0.028897,-0.0289 0.063568,-0.0432 0.1040253,-0.0432 h 0.2982229 v -1.08644 H 1.6763083 c -0.040455,0 -0.075133,-0.0145 -0.104024,-0.0433 -0.027739,-0.0289 -0.041604,-0.0629 -0.041604,-0.10227 0,-0.0404 0.013865,-0.0751 0.041604,-0.104 0.028897,-0.03 0.063568,-0.0451 0.1040232,-0.0451 z"
       style="opacity:1;fill:#ffffff;fill-opacity:1;fill-rule:nonzero;stroke:none;stroke-width:0.00997791;stroke-linecap:butt;stroke-linejoin:miter;stroke-miterlimit:4;stroke-dasharray:none;stroke-dashoffset:0;stroke-opacity:1;paint-order:markers fill stroke" />
  </g>
</svg>
